<svg version="1.1" id="Ebene_1" xmlns="http://www.w3.org/2000/svg" xmlns:xlink="http://www.w3.org/1999/xlink" x="0px" y="0px"
	 width="250px" height="250px" viewBox="0 0 250 250" enable-background="new 0 0 250 250" xml:space="preserve">
<g>
	<g>
		<path fill="#444444" d="M241.792,65.851c0,0.608,0,1.215,0,1.823c-1.768,20.72-8.888,34.117-22.33,44.656
			c-4.413,3.461-9.495,6.962-9.567,12.759c-0.111,8.754,10.918,12.848,15.947,18.227c9.183,9.816,14.688,21.991,15.95,39.187
			c0,0.608,0,1.217,0,1.824c-3.518,34.608-22.633,53.616-56.961,57.414c-0.758,0-1.519,0-2.277,0
			c-20.783-1.774-34.083-8.844-44.655-22.328c-3.239-4.129-6.761-9.874-12.304-10.024c-5.541-0.149-9.697,5.06-13.215,9.568
			c-10.232,13.119-23.372,21.295-44.656,22.784c-0.761,0-1.519,0-2.279,0c-34.235-3.738-53.241-22.705-56.96-56.959
			c0-1.063,0-2.127,0-3.19c1.649-17.523,7.624-30.531,17.771-40.098c4.447-4.192,16.711-9.036,16.86-15.949
			c0.162-7.503-12.386-12.529-17.316-17.315c-9.806-9.522-15.753-22.417-17.315-39.644c0-0.911,0-1.823,0-2.734
			C11.711,31.896,34.598,5.038,74.102,8.892c12.404,1.21,23.498,7.158,31.442,14.126c5.43,4.762,9.69,14.988,18.682,15.492
			c10.313,0.578,13.365-8.727,19.139-14.125c10.488-9.81,27.342-18.717,50.123-15.038C221.658,13.896,239.208,36.046,241.792,65.851
			z M118.759,62.206c-2.235-25.632-24.007-46.437-51.947-46.022c-32.574,0.483-53.467,29.052-50.125,57.871
			c2.672,23.029,21.268,42.778,46.023,44.656c17.882,1.357,28.37-4.137,37.821-12.304C88.613,94.479,77.271,81.973,65.445,69.952
			c-6.862,11.973-13.246,24.423-25.974,30.531c-3.23-3.177-0.319-7.279,1.367-10.024c5.678-9.251,13.33-18.514,20.961-24.606
			c-0.619-3.343-5.6-4.198-4.101-8.203c4.432-2.444,7.668,7.396,10.936,6.835c1.982-0.34,3.527-7.339,4.558-9.569
			c4.549-9.853,14.093-17.799,20.96-21.872c3.136,3.32,0.258,7.689-1.367,10.481c-5.532,9.5-13.04,17.807-19.595,25.062
			c11.494,10.531,22.071,21.979,33.72,32.353C114.694,90.568,120.207,78.807,118.759,62.206z M233.133,71.775
			c2.147-29.969-19.395-52.773-46.022-54.681c-46.102-3.303-70.688,49.313-42.377,82.932c10.581-10.834,21.92-20.912,32.353-31.896
			c-4.986-3.813-9.327-10.458-13.672-16.404c-3.518-4.815-11.737-12.961-6.834-18.683c6.157,3.167,10.329,8.567,14.582,13.67
			c4.534,5.443,6.757,11.821,10.936,17.771c3.326-1.852,6.304-8.352,10.481-6.38c1.325,3.544-3.585,4.551-4.104,7.747
			c5.429,3.506,10.018,9.885,14.582,15.949c3.469,4.609,12.087,12.944,7.291,18.683c-12.165-6.516-18.816-18.548-25.518-30.531
			c-11.48,11.912-23.014,23.769-34.177,35.999C183.407,133.003,230.442,109.353,233.133,71.775z M66.356,130.557
			c-27.958,0.894-47.214,22.438-49.669,45.566c-3.374,31.791,20.029,54.6,45.568,57.416c16.714,1.844,31.482-4.752,40.556-13.215
			c9.051-8.443,16.896-21.644,16.86-38.275c-0.032-14.602-5.731-24.687-12.759-33.266c-11.315,10.71-21.807,22.241-33.72,32.353
			c4.008,4.878,9.207,10.751,13.67,16.861c3.497,4.786,11.544,13.498,6.835,19.138c-6.193-3.132-10.33-8.567-14.582-13.669
			c-4.547-5.457-6.676-11.879-10.937-17.772c-3.463,2.098-5.734,7.508-10.48,6.835c-1.375-3.881,3.426-4.914,4.101-8.201
			c-5.442-3.494-9.998-9.902-14.582-15.949c-3.475-4.586-12.082-12.97-7.29-18.684c12.156,6.528,18.844,18.521,25.518,30.53
			c11.851-12.449,23.904-24.7,35.542-37.364C91.462,135.686,81.957,130.058,66.356,130.557z M130.605,182.96
			c0.037,16.759,7.512,28.805,15.95,36.91c8.739,8.396,21.103,15.386,38.275,14.58c28.555-1.34,51.028-25.254,49.668-54.224
			c-1.318-28.114-23.435-50.64-53.768-49.67c-13.527,0.432-22.516,5.519-31.442,12.304c11.595,12.708,23.678,24.927,35.542,37.366
			c6.805-12.032,13.274-24.397,25.975-30.532c3.193,3.16,0.266,7.304-1.368,10.026c-5.572,9.29-13.408,18.482-20.962,24.606
			c0.62,3.342,5.602,4.196,4.104,8.201c-4.474,2.396-7.639-7.345-10.938-6.835c-2.157,0.333-3.484,7.212-4.556,9.57
			c-4.476,9.843-14.271,17.723-20.963,21.871c-3.47-3.252-0.255-7.269,1.368-10.024c5.636-9.57,13.106-18.515,19.595-25.975
			c-12.159-10.016-22.233-22.118-34.175-32.353C136.275,158.154,130.574,167.813,130.605,182.96z"/>
	</g>
</g>
</svg>
